<svg width="180" height="180" viewBox="0 0 180 180" fill="none" xmlns="http://www.w3.org/2000/svg">
<path d="M0 16C0 7.16344 7.16344 0 16 0H164C172.837 0 180 7.16344 180 16V164C180 172.837 172.837 180 164 180H16C7.16344 180 0 172.837 0 164V16Z" fill="white"/>
<path d="M117.002 78.75L162 163.352H142.595L136.078 150.788H97.8214L91.5215 163.352H72L117.002 78.75ZM127.541 135.63L117.002 114.212L106.572 135.63H127.541Z" fill="#091B32"/>
<path d="M65.846 110.25C39.5047 110.25 18 89.5259 18 64.0618C18 38.7154 39.5047 18 65.846 18C83.708 18 99.4989 27.8763 108 42.3793L90.1337 49.3105C84.7934 41.6343 75.6844 35.4349 65.8417 35.4349C50.0594 35.4349 37.3121 48.827 37.3121 64.0618C37.3121 79.3098 50.0594 92.8369 65.8417 92.8369C75.6844 92.8369 84.789 86.4937 90.1337 78.6781L108 85.6398C99.4989 100.374 83.708 110.25 65.846 110.25Z" fill="#091B32"/>
</svg>
